<svg id="master-artboard" xmlns="http://www.w3.org/2000/svg" viewBox="0 0 980.1 980"><defs><style>.cls-1{fill:#4c5;}.cls-2{fill:#1d1f21;}.cls-3{fill:none;stroke:#4c5;stroke-miterlimit:10;stroke-width:3px;}</style></defs><title>HDsvg_new</title><path class="cls-1" d="M782.7,518.9c0-10.9-120.9,107.2-152,51.3C623.8,557.8,502,318.4,493.8,306.9c-28.5-40.2,153.1-87.6,111.8-114.6a388,388,0,0,0-212.7-63.1C177.6,129.1,3,303.6,3,518.9S177.5,908.7,392.8,908.7,782.7,734.2,782.7,518.9Z"/><g id="Layer_2" data-name="Layer 2"><g id="Layer_4" data-name="Layer 4"><path class="cls-2" d="M890.71,439.69a57.65,57.65,0,0,0,6.31,2.59c-.65,4.85-1.41,9.79-2.31,14.8q-2.31,16.94-6.37,34.6c-21.82,94.56-62.16,154.91-97.06,191.61s-64.37,49.8-64.51,49.84V879.22h0c-67.88,57.25-164.67,68.27-229.15,68.27a488.67,488.67,0,0,1-68.06-4.32V804.11a21.3,21.3,0,0,0-16.44-20.68c-24.78-5.94-70.7-16.15-90.41-34.83C304,730.89,301.57,701.16,313.83,668c22-59.31,9.45-90.8,9.45-90.8-35.06-10.93-63.1-20.94-23-61s49.15-108.29,112.88-229.37S613.43,168.5,613.43,168.5q20.36,0,39.43,1.7a294.63,294.63,0,0,1,30.65,5.26A50.6,50.6,0,0,0,680.43,224l5.65,12.17a8,8,0,0,1,.12,6.39,6.91,6.91,0,0,1-3.92,3.89L670,251a50.67,50.67,0,0,0,0,94.87l12.31,4.51a7,7,0,0,1,3.94,3.91,7.94,7.94,0,0,1-.14,6.39l-5.63,12.15a50.59,50.59,0,0,0,3.08,48.71,48.85,48.85,0,0,0,63.38,18.19l11.85-5.77a6,6,0,0,1,2.62-.63,6.6,6.6,0,0,1,6.16,4.71l4.4,12.7a49.45,49.45,0,0,0,93.72,0l4.4-12.7a6.58,6.58,0,0,1,6.15-4.71,5.8,5.8,0,0,1,2.62.62Z"/><path class="cls-2" d="M960.35,271.23,948,266.7a29.11,29.11,0,0,1-16.83-37.58c.26-.68.54-1.34.85-2L937.69,215a28.83,28.83,0,0,0,.59-23.62,31.68,31.68,0,0,0-1.89-3.72l-.74-1.17a30,30,0,0,0-3.48-4.3,27.07,27.07,0,0,0-31.95-5.64l-11.86,5.77a26.86,26.86,0,0,1-8.9,2.61h-.21a22.39,22.39,0,0,1-2.71.16h-2.91l-1.43-.19-.77-.12c-.51-.09-1-.2-1.54-.32l-.75-.19-1.39-.41-.74-.25-1.43-.56-.68-.3c-.47-.22-.94-.43-1.4-.68l-.55-.32c-.49-.28-1-.56-1.45-.87l-.52-.33c-.55-.37-1.09-.74-1.62-1.14a24.87,24.87,0,0,1-2.46-2.13c-.51-.5-1-1-1.54-1.54-.24-.27-.47-.55-.71-.84-.46-.57-.9-1.16-1.33-1.77-.22-.31-.42-.62-.62-.92a27.06,27.06,0,0,1-1.66-3A28.67,28.67,0,0,1,849.7,166l-4.29-12.77a28.81,28.81,0,0,0-8.24-12.43c-.42-.37-.85-.73-1.29-1.07l-.74-.53c-.46-.33-.92-.65-1.4-.94s-1.22-.73-1.83-1.05a28.24,28.24,0,0,0-26,0c-.61.32-1.23.66-1.83,1.05s-.94.61-1.4.94l-.74.53c-.44.34-.87.7-1.29,1.07a28.81,28.81,0,0,0-8.24,12.43l-4.4,12.7a27.48,27.48,0,0,1-1.34,3.23c-.32.68-.69,1.35-1.06,2a21.68,21.68,0,0,1-1.21,1.89c-.42.61-.87,1.21-1.34,1.77-.23.29-.46.57-.71.85a16,16,0,0,1-1.54,1.54l-.8.75c-.54.48-1.09.94-1.66,1.37a28.39,28.39,0,0,1-2.66,1.82,27.18,27.18,0,0,1-3.82,1.9,27.51,27.51,0,0,1-7.19,1.87c-.7.07-1.43.14-2.14.17h-1.07a27.46,27.46,0,0,1-12.07-2.82l-11.85-5.77a27,27,0,0,0-31,4.69,29,29,0,0,0-6.49,33.77l5.63,12.15a29.12,29.12,0,0,1-14,38.74c-.66.3-1.33.59-2,.85l-12.31,4.52c-24.95,9.09-24.95,45.29,0,54.39l12.31,4.5a29.13,29.13,0,0,1,16.82,37.59c-.26.67-.54,1.34-.85,2l-5.63,12.17a28.91,28.91,0,0,0,5.51,32.79c.32.34.65.66,1,1,.67.63,1.37,1.22,2.1,1.79a21.18,21.18,0,0,0,2.24,1.54,27,27,0,0,0,14.42,4.24,27.67,27.67,0,0,0,12.22-2.9l11.85-5.79a27.44,27.44,0,0,1,12.07-2.8h1.07a19.1,19.1,0,0,1,2.13.17,27.66,27.66,0,0,1,7.2,1.86,26.19,26.19,0,0,1,3.82,1.91,28.29,28.29,0,0,1,2.66,1.81c.57.43,1.12.9,1.66,1.37l.79.76.77.77c.5.52,1,1.07,1.46,1.64s.92,1.16,1.34,1.77a21.21,21.21,0,0,1,1.21,1.9c.39.66.74,1.32,1.06,2a27.48,27.48,0,0,1,1.34,3.23l4.4,12.68a29.76,29.76,0,0,0,5.16,9.23,17,17,0,0,0,1.54,1.65,26.11,26.11,0,0,0,6.85,5.09c.61.33,1.24.63,1.89.91a28,28,0,0,0,6.16,1.82c.63.12,1.26.21,1.9.27a27.58,27.58,0,0,0,6.16,0,10.22,10.22,0,0,0,1.91-.27,28.05,28.05,0,0,0,6.15-1.82c.65-.28,1.28-.58,1.9-.91a26.23,26.23,0,0,0,6.84-5.09c.53-.52,1-1.08,1.54-1.65a29.55,29.55,0,0,0,5.16-9.23l4.4-12.68a29.3,29.3,0,0,1,1.34-3.23c.32-.68.69-1.36,1.06-2a21.94,21.94,0,0,1,1.22-1.9c.43-.6.87-1.2,1.34-1.77a13.78,13.78,0,0,1,1.53-1.64c.25-.26.51-.53.77-.77l.79-.76c.54-.47,1.09-.94,1.66-1.37a28.29,28.29,0,0,1,2.66-1.81,26.19,26.19,0,0,1,3.82-1.91,27.6,27.6,0,0,1,7-1.77c.7,0,1.41-.14,2.12-.17h1.08a27.38,27.38,0,0,1,12.05,2.8l10.91,5.33,1,.46a27.8,27.8,0,0,0,12.21,2.91A27.14,27.14,0,0,0,926.86,419c.79-.49,1.54-1,2.25-1.54a23.77,23.77,0,0,0,2.09-1.79,30.11,30.11,0,0,0,4.45-5.24l.74-1.17a32.62,32.62,0,0,0,1.89-3.73,28.83,28.83,0,0,0-.59-23.62l-5.63-12.17A29.11,29.11,0,0,1,946,331c.65-.31,1.32-.6,2-.85l12.31-4.51C985.28,316.52,985.28,280.32,960.35,271.23Zm-53.13,35.3q-.22,2.75-.61,5.49-.6,4.16-1.54,8.34a89.67,89.67,0,0,1-11.7,28.1,87.2,87.2,0,0,1-53.15,38.48,92.37,92.37,0,0,1-21.39,2.57,87.27,87.27,0,0,1-61.24-25.15c-.89-.88-1.78-1.78-2.64-2.69s-1.7-1.85-2.53-2.8h0c-.83-1-1.63-1.93-2.41-2.91s-1.54-2-2.3-3.08q-1.92-2.62-3.64-5.4c-1.25-2-2.43-4.06-3.53-6.16q-2-3.93-3.74-8.12c-.44-1.11-.87-2.23-1.27-3.36s-.79-2.27-1.16-3.43-.71-2.31-1-3.48l-.46-1.77a93.47,93.47,0,0,1-2.79-22.9q0-4,.34-8c.16-1.83.36-3.66.62-5.5.4-2.77.91-5.54,1.54-8.34a88.94,88.94,0,0,1,53.17-62.82,83.48,83.48,0,0,1,11.68-3.72,91.7,91.7,0,0,1,21.39-2.57A87.28,87.28,0,0,1,841,210.19c1.42.39,2.84.79,4.22,1.23s2.77.93,4.13,1.43,2.7,1.07,4,1.64l2,.89c2,.91,3.89,1.89,5.78,2.94s3.73,2.17,5.53,3.35c1.2.79,2.38,1.62,3.54,2.46s2.31,1.71,3.41,2.62,2.22,1.83,3.3,2.79,2.11,1.92,3.08,2.94l1.53,1.53a89.16,89.16,0,0,1,8.38,9.92q1.9,2.63,3.64,5.4c1.25,2,2.43,4,3.53,6.15,1.37,2.63,2.63,5.34,3.74,8.11.44,1.13.87,2.23,1.27,3.37s.8,2.28,1.16,3.44.71,2.3,1,3.47l.46,1.77h0A94,94,0,0,1,907.22,306.53Z"/><path class="cls-2" d="M866.35,308.47l-.23,1a5.61,5.61,0,0,1-.28,1.18c-.31,1.17-.64,2.34-1,3.48a47.1,47.1,0,0,1-2.75,6.6l-.56,1.07c-.18.33-.37.69-.57,1s-.38.67-.6,1c-.8,1.35-1.68,2.66-2.61,3.93-.23.3-.46.63-.71.94s-.48.6-.72.9l-.76.91-.78.91c-.28.29-.53.57-.79.83a43.22,43.22,0,0,1-3.37,3.26l-.89.76-.91.74-.92.72c-1.11.83-2.25,1.63-3.43,2.37-.43.28-.88.54-1.33.8-.84.51-1.71,1-2.58,1.42l-1.54.76-1.2.54-1.54.62c-.6.23-1.22.46-1.82.66l-1.54.52-.69.2-1.45.39c-.61.17-1.24.31-1.89.44-1.23.27-2.48.48-3.75.64h-.63l-1.54.15c-.68,0-1.34.09-2,.12s-1.35,0-2,0a51.55,51.55,0,0,1-13.42-1.81,47.72,47.72,0,0,1-33.32-33.72c-8.74-33,15.56-62.7,46.74-62.7A51.56,51.56,0,0,1,832.31,251a43.6,43.6,0,0,1,5.57,1.92c.55.22,1.09.46,1.63.71h.11c.75.34,1.54.71,2.22,1.09h0l1.1.62,1.13.66c.37.23.74.45,1.1.69l1.1.71c.64.45,1.29.89,1.91,1.39s.81.61,1.21,1,.68.54,1,.83.76.65,1.13,1c.58.55,1.16,1.11,1.73,1.68s1.2,1.23,1.79,1.89c.28.32.57.65.85,1l.78.93a38.26,38.26,0,0,1,2.35,3.24c.25.35.48.72.73,1.09s.46.74.68,1.11a45.11,45.11,0,0,1,2.44,4.61c.19.39.36.79.53,1.19.35.81.67,1.66,1,2.49.15.42.29.85.43,1.26s.27.85.4,1.28.24.86.37,1.29a3.14,3.14,0,0,0,.12.51h0a53.47,53.47,0,0,1,1.43,8.23c0,.54.09,1.08.12,1.54A49.71,49.71,0,0,1,866.35,308.47Z"/></g><g id="Layer_4-2" data-name="Layer 4"><path class="cls-2" d="M890.71,439.69a57.65,57.65,0,0,0,6.31,2.59c-.65,4.85-1.41,9.79-2.31,14.8q-2.31,16.94-6.37,34.6c-21.82,94.56-62.16,154.91-97.06,191.61s-64.37,49.8-64.51,49.84V879.22h0c-67.88,57.25-164.67,68.27-229.15,68.27a488.67,488.67,0,0,1-68.06-4.32V804.11a21.3,21.3,0,0,0-16.44-20.68c-24.78-5.94-70.7-16.15-90.41-34.83C304,730.89,301.57,701.16,313.83,668c22-59.31,9.45-90.8,9.45-90.8-35.06-10.93-63.1-20.94-23-61s49.15-108.29,112.88-229.37S613.43,168.5,613.43,168.5q20.36,0,39.43,1.7a294.63,294.63,0,0,1,30.65,5.26A50.6,50.6,0,0,0,680.43,224l5.65,12.17a8,8,0,0,1,.12,6.39,6.91,6.91,0,0,1-3.92,3.89L670,251a50.67,50.67,0,0,0,0,94.87l12.31,4.51a7,7,0,0,1,3.94,3.91,7.94,7.94,0,0,1-.14,6.39l-5.63,12.15a50.59,50.59,0,0,0,3.08,48.71,48.85,48.85,0,0,0,63.38,18.19l11.85-5.77a6,6,0,0,1,2.62-.63,6.6,6.6,0,0,1,6.16,4.71l4.4,12.7a49.45,49.45,0,0,0,93.72,0l4.4-12.7a6.58,6.58,0,0,1,6.15-4.71,5.8,5.8,0,0,1,2.62.62Z"/><path class="cls-2" d="M960.35,271.23,948,266.7a29.11,29.11,0,0,1-16.83-37.58c.26-.68.54-1.34.85-2L937.69,215a28.83,28.83,0,0,0,.59-23.62,31.68,31.68,0,0,0-1.89-3.72l-.74-1.17a30,30,0,0,0-3.48-4.3,27.07,27.07,0,0,0-31.95-5.64l-11.86,5.77a26.86,26.86,0,0,1-8.9,2.61h-.21a22.39,22.39,0,0,1-2.71.16h-2.91l-1.43-.19-.77-.12c-.51-.09-1-.2-1.54-.32l-.75-.19-1.39-.41-.74-.25-1.43-.56-.68-.3c-.47-.22-.94-.43-1.4-.68l-.55-.32c-.49-.28-1-.56-1.45-.87l-.52-.33c-.55-.37-1.09-.74-1.62-1.14a24.87,24.87,0,0,1-2.46-2.13c-.51-.5-1-1-1.54-1.54-.24-.27-.47-.55-.71-.84-.46-.57-.9-1.16-1.33-1.77-.22-.31-.42-.62-.62-.92a27.06,27.06,0,0,1-1.66-3A28.67,28.67,0,0,1,849.7,166l-4.29-12.77a28.81,28.81,0,0,0-8.24-12.43c-.42-.37-.85-.73-1.29-1.07l-.74-.53c-.46-.33-.92-.65-1.4-.94s-1.22-.73-1.83-1.05a28.24,28.24,0,0,0-26,0c-.61.32-1.23.66-1.83,1.05s-.94.61-1.4.94l-.74.53c-.44.34-.87.7-1.29,1.07a28.81,28.81,0,0,0-8.24,12.43l-4.4,12.7a27.48,27.48,0,0,1-1.34,3.23c-.32.68-.69,1.35-1.06,2a21.68,21.68,0,0,1-1.21,1.89c-.42.61-.87,1.21-1.34,1.77-.23.29-.46.57-.71.85a16,16,0,0,1-1.54,1.54l-.8.75c-.54.48-1.09.94-1.66,1.37a28.39,28.39,0,0,1-2.66,1.82,27.18,27.18,0,0,1-3.82,1.9,27.51,27.51,0,0,1-7.19,1.87c-.7.07-1.43.14-2.14.17h-1.07a27.46,27.46,0,0,1-12.07-2.82l-11.85-5.77a27,27,0,0,0-31,4.69,29,29,0,0,0-6.49,33.77l5.63,12.15a29.12,29.12,0,0,1-14,38.74c-.66.3-1.33.59-2,.85l-12.31,4.52c-24.95,9.09-24.95,45.29,0,54.39l12.31,4.5a29.13,29.13,0,0,1,16.82,37.59c-.26.67-.54,1.34-.85,2l-5.63,12.17a28.91,28.91,0,0,0,5.51,32.79c.32.34.65.66,1,1,.67.63,1.37,1.22,2.1,1.79a21.18,21.18,0,0,0,2.24,1.54,27,27,0,0,0,14.42,4.24,27.67,27.67,0,0,0,12.22-2.9l11.85-5.79a27.44,27.44,0,0,1,12.07-2.8h1.07a19.1,19.1,0,0,1,2.13.17,27.66,27.66,0,0,1,7.2,1.86,26.19,26.19,0,0,1,3.82,1.91,28.29,28.29,0,0,1,2.66,1.81c.57.43,1.12.9,1.66,1.37l.79.76.77.77c.5.52,1,1.07,1.46,1.64s.92,1.16,1.34,1.77a21.21,21.21,0,0,1,1.21,1.9c.39.66.74,1.32,1.06,2a27.48,27.48,0,0,1,1.34,3.23l4.4,12.68a29.76,29.76,0,0,0,5.16,9.23,17,17,0,0,0,1.54,1.65,26.11,26.11,0,0,0,6.85,5.09c.61.33,1.24.63,1.89.91a28,28,0,0,0,6.16,1.82c.63.12,1.26.21,1.9.27a27.58,27.58,0,0,0,6.16,0,10.22,10.22,0,0,0,1.91-.27,28.05,28.05,0,0,0,6.15-1.82c.65-.28,1.28-.58,1.9-.91a26.23,26.23,0,0,0,6.84-5.09c.53-.52,1-1.08,1.54-1.65a29.55,29.55,0,0,0,5.16-9.23l4.4-12.68a29.3,29.3,0,0,1,1.34-3.23c.32-.68.69-1.36,1.06-2a21.94,21.94,0,0,1,1.22-1.9c.43-.6.87-1.2,1.34-1.77a13.78,13.78,0,0,1,1.53-1.64c.25-.26.51-.53.77-.77l.79-.76c.54-.47,1.09-.94,1.66-1.37a28.29,28.29,0,0,1,2.66-1.81,26.19,26.19,0,0,1,3.82-1.91,27.6,27.6,0,0,1,7-1.77c.7,0,1.41-.14,2.12-.17h1.08a27.38,27.38,0,0,1,12.05,2.8l10.91,5.33,1,.46a27.8,27.8,0,0,0,12.21,2.91A27.14,27.14,0,0,0,926.86,419c.79-.49,1.54-1,2.25-1.54a23.77,23.77,0,0,0,2.09-1.79,30.11,30.11,0,0,0,4.45-5.24l.74-1.17a32.62,32.62,0,0,0,1.89-3.73,28.83,28.83,0,0,0-.59-23.62l-5.63-12.17A29.11,29.11,0,0,1,946,331c.65-.31,1.32-.6,2-.85l12.31-4.51C985.28,316.52,985.28,280.32,960.35,271.23Zm-53.13,35.3q-.22,2.75-.61,5.49-.6,4.16-1.54,8.34a89.67,89.67,0,0,1-11.7,28.1,87.2,87.2,0,0,1-53.15,38.48,92.37,92.37,0,0,1-21.39,2.57,87.27,87.27,0,0,1-61.24-25.15c-.89-.88-1.78-1.78-2.64-2.69s-1.7-1.85-2.53-2.8h0c-.83-1-1.63-1.93-2.41-2.91s-1.54-2-2.3-3.08q-1.92-2.62-3.64-5.4c-1.25-2-2.43-4.06-3.53-6.16q-2-3.93-3.74-8.12c-.44-1.11-.87-2.23-1.27-3.36s-.79-2.27-1.16-3.43-.71-2.31-1-3.48l-.46-1.77a93.47,93.47,0,0,1-2.79-22.9q0-4,.34-8c.16-1.83.36-3.66.62-5.5.4-2.77.91-5.54,1.54-8.34a88.94,88.94,0,0,1,53.17-62.82,83.48,83.48,0,0,1,11.68-3.72,91.7,91.7,0,0,1,21.39-2.57A87.28,87.28,0,0,1,841,210.19c1.42.39,2.84.79,4.22,1.23s2.77.93,4.13,1.43,2.7,1.07,4,1.64l2,.89c2,.91,3.89,1.89,5.78,2.94s3.73,2.17,5.53,3.35c1.2.79,2.38,1.62,3.54,2.46s2.31,1.71,3.41,2.62,2.22,1.83,3.3,2.79,2.11,1.92,3.08,2.94l1.53,1.53a89.16,89.16,0,0,1,8.38,9.92q1.9,2.63,3.64,5.4c1.25,2,2.43,4,3.53,6.15,1.37,2.63,2.63,5.34,3.74,8.11.44,1.13.87,2.23,1.27,3.37s.8,2.28,1.16,3.44.71,2.3,1,3.47l.46,1.77h0A94,94,0,0,1,907.22,306.53Z"/><path class="cls-2" d="M866.35,308.47l-.23,1a5.61,5.61,0,0,1-.28,1.18c-.31,1.17-.64,2.34-1,3.48a47.1,47.1,0,0,1-2.75,6.6l-.56,1.07c-.18.33-.37.69-.57,1s-.38.67-.6,1c-.8,1.35-1.68,2.66-2.61,3.93-.23.3-.46.63-.71.94s-.48.6-.72.9l-.76.91-.78.91c-.28.29-.53.57-.79.83a43.22,43.22,0,0,1-3.37,3.26l-.89.76-.91.74-.92.72c-1.11.83-2.25,1.63-3.43,2.37-.43.28-.88.54-1.33.8-.84.51-1.71,1-2.58,1.42l-1.54.76-1.2.54-1.54.62c-.6.23-1.22.46-1.82.66l-1.54.52-.69.2-1.45.39c-.61.17-1.24.31-1.89.44-1.23.27-2.48.48-3.75.64h-.63l-1.54.15c-.68,0-1.34.09-2,.12s-1.35,0-2,0a51.55,51.55,0,0,1-13.42-1.81,47.72,47.72,0,0,1-33.32-33.72c-8.74-33,15.56-62.7,46.74-62.7A51.56,51.56,0,0,1,832.31,251a43.6,43.6,0,0,1,5.57,1.92c.55.22,1.09.46,1.63.71h.11c.75.34,1.54.71,2.22,1.09h0l1.1.62,1.13.66c.37.23.74.45,1.1.69l1.1.71c.64.45,1.29.89,1.91,1.39s.81.61,1.21,1,.68.54,1,.83.76.65,1.13,1c.58.55,1.16,1.11,1.73,1.68s1.2,1.23,1.79,1.89c.28.32.57.65.85,1l.78.93a38.26,38.26,0,0,1,2.35,3.24c.25.35.48.72.73,1.09s.46.74.68,1.11a45.11,45.11,0,0,1,2.44,4.61c.19.39.36.79.53,1.19.35.81.67,1.66,1,2.49.15.42.29.85.43,1.26s.27.85.4,1.28.24.86.37,1.29a3.14,3.14,0,0,0,.12.51h0a53.47,53.47,0,0,1,1.43,8.23c0,.54.09,1.08.12,1.54A49.71,49.71,0,0,1,866.35,308.47Z"/></g><g id="Layer_4-3" data-name="Layer 4"><path class="cls-3" d="M890.71,439.69a57.65,57.65,0,0,0,6.31,2.59c-.65,4.85-1.41,9.79-2.31,14.8q-2.31,16.94-6.37,34.6c-21.82,94.56-62.16,154.91-97.06,191.61s-64.37,49.8-64.51,49.84V879.22h0c-67.88,57.25-164.67,68.27-229.15,68.27a488.67,488.67,0,0,1-68.06-4.32V804.11a21.3,21.3,0,0,0-16.44-20.68c-24.78-5.94-70.7-16.15-90.41-34.83C304,730.89,301.57,701.16,313.83,668c22-59.31,9.45-90.8,9.45-90.8-35.06-10.93-63.1-20.94-23-61s49.15-108.29,112.88-229.37S613.43,168.5,613.43,168.5q20.36,0,39.43,1.7a294.63,294.63,0,0,1,30.65,5.26A50.6,50.6,0,0,0,680.43,224l5.65,12.17a8,8,0,0,1,.12,6.39,6.91,6.91,0,0,1-3.92,3.89L670,251a50.67,50.67,0,0,0,0,94.87l12.31,4.51a7,7,0,0,1,3.94,3.91,7.94,7.94,0,0,1-.14,6.39l-5.63,12.15a50.59,50.59,0,0,0,3.08,48.71,48.85,48.85,0,0,0,63.38,18.19l11.85-5.77a6,6,0,0,1,2.62-.63,6.6,6.6,0,0,1,6.16,4.71l4.4,12.7a49.45,49.45,0,0,0,93.72,0l4.4-12.7a6.58,6.58,0,0,1,6.15-4.71,5.8,5.8,0,0,1,2.62.62Z"/><path class="cls-3" d="M960.35,271.23,948,266.7a29.11,29.11,0,0,1-16.83-37.58c.26-.68.54-1.34.85-2L937.69,215a28.83,28.83,0,0,0,.59-23.62,31.68,31.68,0,0,0-1.89-3.72l-.74-1.17a30,30,0,0,0-3.48-4.3,27.07,27.07,0,0,0-31.95-5.64l-11.86,5.77a26.86,26.86,0,0,1-8.9,2.61h-.21a22.39,22.39,0,0,1-2.71.16h-2.91l-1.43-.19-.77-.12c-.51-.09-1-.2-1.54-.32l-.75-.19-1.39-.41-.74-.25-1.43-.56-.68-.3c-.47-.22-.94-.43-1.4-.68l-.55-.32c-.49-.28-1-.56-1.45-.87l-.52-.33c-.55-.37-1.09-.74-1.62-1.14a24.87,24.87,0,0,1-2.46-2.13c-.51-.5-1-1-1.54-1.54-.24-.27-.47-.55-.71-.84-.46-.57-.9-1.16-1.33-1.77-.22-.31-.42-.62-.62-.92a27.06,27.06,0,0,1-1.66-3A28.67,28.67,0,0,1,849.7,166l-4.29-12.77a28.81,28.81,0,0,0-8.24-12.43c-.42-.37-.85-.73-1.29-1.07l-.74-.53c-.46-.33-.92-.65-1.4-.94s-1.22-.73-1.83-1.05a28.24,28.24,0,0,0-26,0c-.61.32-1.23.66-1.83,1.05s-.94.61-1.4.94l-.74.53c-.44.34-.87.7-1.29,1.07a28.81,28.81,0,0,0-8.24,12.43l-4.4,12.7a27.48,27.48,0,0,1-1.34,3.23c-.32.68-.69,1.35-1.06,2a21.68,21.68,0,0,1-1.21,1.89c-.42.61-.87,1.21-1.34,1.77-.23.29-.46.57-.71.85a16,16,0,0,1-1.54,1.54l-.8.75c-.54.48-1.09.94-1.66,1.37a28.39,28.39,0,0,1-2.66,1.82,27.18,27.18,0,0,1-3.82,1.9,27.51,27.51,0,0,1-7.19,1.87c-.7.07-1.43.14-2.14.17h-1.07a27.46,27.46,0,0,1-12.07-2.82l-11.85-5.77a27,27,0,0,0-31,4.69,29,29,0,0,0-6.49,33.77l5.63,12.15a29.12,29.12,0,0,1-14,38.74c-.66.3-1.33.59-2,.85l-12.31,4.52c-24.95,9.09-24.95,45.29,0,54.39l12.31,4.5a29.13,29.13,0,0,1,16.82,37.59c-.26.67-.54,1.34-.85,2l-5.63,12.17a28.91,28.91,0,0,0,5.51,32.79c.32.34.65.66,1,1,.67.63,1.37,1.22,2.1,1.79a21.18,21.18,0,0,0,2.24,1.54,27,27,0,0,0,14.42,4.24,27.67,27.67,0,0,0,12.22-2.9l11.85-5.79a27.44,27.44,0,0,1,12.07-2.8h1.07a19.1,19.1,0,0,1,2.13.17,27.66,27.66,0,0,1,7.2,1.86,26.19,26.19,0,0,1,3.82,1.91,28.29,28.29,0,0,1,2.66,1.81c.57.43,1.12.9,1.66,1.37l.79.76.77.77c.5.52,1,1.07,1.46,1.64s.92,1.16,1.34,1.77a21.21,21.21,0,0,1,1.21,1.9c.39.66.74,1.32,1.06,2a27.48,27.48,0,0,1,1.34,3.23l4.4,12.68a29.76,29.76,0,0,0,5.16,9.23,17,17,0,0,0,1.54,1.65,26.11,26.11,0,0,0,6.85,5.09c.61.33,1.24.63,1.89.91a28,28,0,0,0,6.16,1.82c.63.12,1.26.21,1.9.27a27.58,27.58,0,0,0,6.16,0,10.22,10.22,0,0,0,1.91-.27,28.05,28.05,0,0,0,6.15-1.82c.65-.28,1.28-.58,1.9-.91a26.23,26.23,0,0,0,6.84-5.09c.53-.52,1-1.08,1.54-1.65a29.55,29.55,0,0,0,5.16-9.23l4.4-12.68a29.3,29.3,0,0,1,1.34-3.23c.32-.68.69-1.36,1.06-2a21.94,21.94,0,0,1,1.22-1.9c.43-.6.87-1.2,1.34-1.77a13.78,13.78,0,0,1,1.53-1.64c.25-.26.51-.53.77-.77l.79-.76c.54-.47,1.09-.94,1.66-1.37a28.29,28.29,0,0,1,2.66-1.81,26.19,26.19,0,0,1,3.82-1.91,27.6,27.6,0,0,1,7-1.77c.7,0,1.41-.14,2.12-.17h1.08a27.38,27.38,0,0,1,12.05,2.8l10.91,5.33,1,.46a27.8,27.8,0,0,0,12.21,2.91A27.14,27.14,0,0,0,926.86,419c.79-.49,1.54-1,2.25-1.54a23.77,23.77,0,0,0,2.09-1.79,30.11,30.11,0,0,0,4.45-5.24l.74-1.17a32.62,32.62,0,0,0,1.89-3.73,28.83,28.83,0,0,0-.59-23.62l-5.63-12.17A29.11,29.11,0,0,1,946,331c.65-.31,1.32-.6,2-.85l12.31-4.51C985.28,316.52,985.28,280.32,960.35,271.23Zm-53.13,35.3q-.22,2.75-.61,5.49-.6,4.16-1.54,8.34a89.67,89.67,0,0,1-11.7,28.1,87.2,87.2,0,0,1-53.15,38.48,92.37,92.37,0,0,1-21.39,2.57,87.27,87.27,0,0,1-61.24-25.15c-.89-.88-1.78-1.78-2.64-2.69s-1.7-1.85-2.53-2.8h0c-.83-1-1.63-1.93-2.41-2.91s-1.54-2-2.3-3.08q-1.92-2.62-3.64-5.4c-1.25-2-2.43-4.06-3.53-6.16q-2-3.93-3.74-8.12c-.44-1.11-.87-2.23-1.27-3.36s-.79-2.27-1.16-3.43-.71-2.31-1-3.48l-.46-1.77a93.47,93.47,0,0,1-2.79-22.9q0-4,.34-8c.16-1.83.36-3.66.62-5.5.4-2.77.91-5.54,1.54-8.34a88.94,88.94,0,0,1,53.17-62.82,83.48,83.48,0,0,1,11.68-3.72,91.7,91.7,0,0,1,21.39-2.57A87.28,87.28,0,0,1,841,210.19c1.42.39,2.84.79,4.22,1.23s2.77.93,4.13,1.43,2.7,1.07,4,1.64l2,.89c2,.91,3.89,1.89,5.78,2.94s3.73,2.17,5.53,3.35c1.2.79,2.38,1.62,3.54,2.46s2.31,1.71,3.41,2.62,2.22,1.83,3.3,2.79,2.11,1.92,3.08,2.94l1.53,1.53a89.16,89.16,0,0,1,8.38,9.92q1.9,2.63,3.64,5.4c1.25,2,2.43,4,3.53,6.15,1.37,2.63,2.63,5.34,3.74,8.11.44,1.13.87,2.23,1.27,3.37s.8,2.28,1.16,3.44.71,2.3,1,3.47l.46,1.77h0A94,94,0,0,1,907.22,306.53Z"/><path class="cls-3" d="M866.35,308.47l-.23,1a5.61,5.61,0,0,1-.28,1.18c-.31,1.17-.64,2.34-1,3.48a47.1,47.1,0,0,1-2.75,6.6l-.56,1.07c-.18.33-.37.69-.57,1s-.38.67-.6,1c-.8,1.35-1.68,2.66-2.61,3.93-.23.3-.46.63-.71.94s-.48.6-.72.9l-.76.91-.78.91c-.28.29-.53.57-.79.83a43.22,43.22,0,0,1-3.37,3.26l-.89.76-.91.74-.92.72c-1.11.83-2.25,1.63-3.43,2.37-.43.28-.88.54-1.33.8-.84.51-1.71,1-2.58,1.42l-1.54.76-1.2.54-1.54.62c-.6.23-1.22.46-1.82.66l-1.54.52-.69.2-1.45.39c-.61.17-1.24.31-1.89.44-1.23.27-2.48.48-3.75.64h-.63l-1.54.15c-.68,0-1.34.09-2,.12s-1.35,0-2,0a51.55,51.55,0,0,1-13.42-1.81,47.72,47.72,0,0,1-33.32-33.72c-8.74-33,15.56-62.7,46.74-62.7A51.56,51.56,0,0,1,832.31,251a43.6,43.6,0,0,1,5.57,1.92c.55.22,1.09.46,1.63.71h.11c.75.34,1.54.71,2.22,1.09h0l1.1.62,1.13.66c.37.23.74.45,1.1.69l1.1.71c.64.45,1.29.89,1.91,1.39s.81.61,1.21,1,.68.54,1,.83.76.65,1.13,1c.58.55,1.16,1.11,1.73,1.68s1.2,1.23,1.79,1.89c.28.32.57.65.85,1l.78.93a38.26,38.26,0,0,1,2.35,3.24c.25.35.48.72.73,1.09s.46.74.68,1.11a45.11,45.11,0,0,1,2.44,4.61c.19.39.36.79.53,1.19.35.81.67,1.66,1,2.49.15.42.29.85.43,1.26s.27.85.4,1.28.24.86.37,1.29a3.14,3.14,0,0,0,.12.51h0a53.47,53.47,0,0,1,1.43,8.23c0,.54.09,1.08.12,1.54A49.71,49.71,0,0,1,866.35,308.47Z"/></g></g></svg>